<?xml version="1.0" standalone="no"?><!DOCTYPE svg PUBLIC "-//W3C//DTD SVG 1.1//EN" "http://www.w3.org/Graphics/SVG/1.1/DTD/svg11.dtd"><svg t="1546608310979" class="icon" style="" viewBox="0 0 1024 1024" version="1.1" xmlns="http://www.w3.org/2000/svg" p-id="10416" xmlns:xlink="http://www.w3.org/1999/xlink" width="200" height="200"><defs><style type="text/css"></style></defs><path d="M932.345679 718.064198c-18.330864-10.745679-41.08642-5.05679-51.832099 13.274074-77.116049 129.580247-218.074074 209.85679-368.51358 209.85679-200.375309 0-369.777778-138.42963-415.920988-324.898766l54.992593 54.992593c14.538272 14.538272 38.558025 14.538272 53.728395 0 14.538272-14.538272 14.538272-38.558025 0-53.728395l-133.37284-132.740741C60.681481 474.074074 44.246914 470.91358 30.340741 476.602469c-13.906173 5.688889-23.387654 19.595062-23.387655 34.765432 0 278.123457 226.291358 504.414815 504.414815 504.414815 176.987654 0 343.22963-94.182716 433.619753-246.518518 10.745679-17.698765 5.05679-40.454321-12.641975-51.2z m0 0" p-id="10417" fill="#CC3333"></path><path d="M511.367901 6.953086C316.681481 6.953086 142.854321 115.674074 57.520988 290.765432c-9.481481 18.962963-1.264198 41.718519 17.698765 50.567901 18.330864 9.481481 41.718519 1.264198 50.567901-17.698765 72.691358-148.54321 220.602469-240.82963 385.580247-240.82963 200.375309 0 369.145679 138.42963 415.920988 324.898766l-67.002469-67.002469c-14.538272-14.538272-38.558025-14.538272-53.728395 0-14.538272 14.538272-14.538272 38.558025 0 53.728395l144.750617 144.750617c6.953086 6.953086 17.066667 11.377778 26.548148 11.377778 5.05679 0 9.481481-1.264198 14.538272-3.160494 13.906173-5.688889 23.387654-19.595062 23.387654-34.765432 0-279.387654-226.291358-505.679012-504.414815-505.679013z m0 0" p-id="10418" fill="#CC3333"></path></svg>